<svg width="103" height="20" viewBox="0 0 103 20" fill="none" xmlns="http://www.w3.org/2000/svg">
<path d="M0.508 19.1543V0.434296H17.694V3.5803H3.654V8.2343H14.964V11.3543H3.654V16.0083H17.694V19.1543H0.508Z" fill="#00C89A"/>
<path d="M20.4403 19.1543V0.434296H34.8963C35.5376 0.434296 36.1183 0.590296 36.6383 0.902296C37.1756 1.2143 37.6003 1.63896 37.9123 2.1763C38.2416 2.71363 38.4063 3.30296 38.4063 3.9443V7.6623C38.4063 7.90496 38.3803 8.13896 38.3283 8.3643C38.2936 8.5723 38.2329 8.77163 38.1463 8.9623C38.4583 9.39563 38.7009 9.82896 38.8743 10.2623C39.0649 10.6783 39.1603 11.103 39.1603 11.5363V15.6443C39.1603 16.2856 38.9956 16.875 38.6663 17.4123C38.3543 17.9496 37.9296 18.3743 37.3923 18.6863C36.8723 18.9983 36.2916 19.1543 35.6503 19.1543H20.4403ZM24.0283 16.0083H35.5463C35.6676 16.0083 35.7716 15.965 35.8583 15.8783C35.9623 15.7916 36.0143 15.679 36.0143 15.5403V11.6663C36.0143 11.5276 35.9623 11.415 35.8583 11.3283C35.7716 11.2416 35.6676 11.1983 35.5463 11.1983H24.0283C23.9069 11.1983 23.7943 11.2416 23.6903 11.3283C23.6036 11.415 23.5603 11.5276 23.5603 11.6663V15.5403C23.5603 15.679 23.6036 15.7916 23.6903 15.8783C23.7943 15.965 23.9069 16.0083 24.0283 16.0083ZM24.0283 8.0523H34.7663C34.9049 8.0523 35.0176 8.00896 35.1043 7.9223C35.1909 7.8183 35.2343 7.70563 35.2343 7.5843V4.0483C35.2343 3.90963 35.1909 3.79696 35.1043 3.7103C35.0176 3.62363 34.9049 3.5803 34.7663 3.5803H24.0283C23.9069 3.5803 23.7943 3.62363 23.6903 3.7103C23.6036 3.79696 23.5603 3.90963 23.5603 4.0483V7.5843C23.5603 7.70563 23.6036 7.8183 23.6903 7.9223C23.7943 8.00896 23.9069 8.0523 24.0283 8.0523ZM42.0211 19.1543V0.408296H45.1411V16.0083H60.7411V19.1543H42.0211ZM65.7148 19.1543C65.0734 19.1543 64.4841 18.9983 63.9468 18.6863C63.4094 18.3743 62.9848 17.9496 62.6728 17.4123C62.3608 16.875 62.2048 16.2856 62.2048 15.6443V3.9443C62.2048 3.30296 62.3608 2.71363 62.6728 2.1763C62.9848 1.63896 63.4094 1.2143 63.9468 0.902296C64.4841 0.590296 65.0734 0.434296 65.7148 0.434296H77.4148C78.0561 0.434296 78.6368 0.590296 79.1568 0.902296C79.6941 1.2143 80.1188 1.63896 80.4308 2.1763C80.7601 2.71363 80.9248 3.30296 80.9248 3.9443V15.6443C80.9248 16.2856 80.7601 16.875 80.4308 17.4123C80.1188 17.9496 79.6941 18.3743 79.1568 18.6863C78.6368 18.9983 78.0561 19.1543 77.4148 19.1543H65.7148ZM65.7928 16.0083H77.3108C77.4321 16.0083 77.5361 15.965 77.6228 15.8783C77.7268 15.7916 77.7788 15.679 77.7788 15.5403V4.0483C77.7788 3.90963 77.7268 3.79696 77.6228 3.7103C77.5361 3.62363 77.4321 3.5803 77.3108 3.5803H65.7928C65.6714 3.5803 65.5588 3.62363 65.4548 3.7103C65.3681 3.79696 65.3248 3.90963 65.3248 4.0483V15.5403C65.3248 15.679 65.3681 15.7916 65.4548 15.8783C65.5588 15.965 65.6714 16.0083 65.7928 16.0083ZM87.298 19.1543C86.6567 19.1543 86.0674 18.9983 85.53 18.6863C84.9927 18.3743 84.568 17.9496 84.256 17.4123C83.944 16.875 83.788 16.2856 83.788 15.6443V3.9443C83.788 3.30296 83.944 2.71363 84.256 2.1763C84.568 1.63896 84.9927 1.2143 85.53 0.902296C86.0674 0.590296 86.6567 0.434296 87.298 0.434296H98.998C99.6394 0.434296 100.22 0.590296 100.74 0.902296C101.277 1.2143 101.702 1.63896 102.014 2.1763C102.343 2.71363 102.508 3.30296 102.508 3.9443V5.2183H99.362V4.0483C99.362 3.90963 99.31 3.79696 99.206 3.7103C99.1194 3.62363 99.0154 3.5803 98.894 3.5803H87.376C87.2547 3.5803 87.142 3.62363 87.038 3.7103C86.9514 3.79696 86.908 3.90963 86.908 4.0483V15.5403C86.908 15.679 86.9514 15.7916 87.038 15.8783C87.142 15.965 87.2547 16.0083 87.376 16.0083H98.894C99.0154 16.0083 99.1194 15.965 99.206 15.8783C99.31 15.7916 99.362 15.679 99.362 15.5403V11.8743H95.046V8.7283H102.508V15.6443C102.508 16.2856 102.343 16.875 102.014 17.4123C101.702 17.9496 101.277 18.3743 100.74 18.6863C100.22 18.9983 99.6394 19.1543 98.998 19.1543H87.298Z" fill="#1E1E1E"/>
</svg>
