<svg width="165" height="31" viewBox="0 0 165 31" fill="none" xmlns="http://www.w3.org/2000/svg">
<g clip-path="url(#clip0_2211_3136)">
<path d="M0.813477 31.0002V0.457031H28.3444V5.58998H5.85319V13.1833H23.9711V18.2739H5.85319V25.8672H28.3444V31.0002H0.813477Z" fill="#FF6E3A"/>
<path d="M32.7441 30.9996V0.456482H55.9018C56.9291 0.456482 57.8594 0.711008 58.6924 1.22006C59.5531 1.72912 60.2335 2.422 60.7333 3.29869C61.2608 4.17539 61.5246 5.13695 61.5246 6.18333V12.2495C61.5246 12.6455 61.483 13.0273 61.3997 13.3949C61.3441 13.7343 61.2469 14.0595 61.1081 14.3706C61.6079 15.0776 61.9966 15.7846 62.2743 16.4916C62.5797 17.1704 62.7325 17.8633 62.7325 18.5703V25.2728C62.7325 26.3191 62.4687 27.2808 61.9411 28.1574C61.4413 29.0341 60.761 29.727 59.9003 30.2361C59.0672 30.7451 58.137 30.9996 57.1097 30.9996H32.7441ZM38.4919 25.8667H56.9431C57.1374 25.8667 57.304 25.796 57.4429 25.6546C57.6095 25.5131 57.6928 25.3294 57.6928 25.1031V18.7824C57.6928 18.5561 57.6095 18.3724 57.4429 18.2309C57.304 18.0894 57.1374 18.0188 56.9431 18.0188H38.4919C38.2974 18.0188 38.1171 18.0894 37.9505 18.2309C37.8116 18.3724 37.7422 18.5561 37.7422 18.7824V25.1031C37.7422 25.3294 37.8116 25.5131 37.9505 25.6546C38.1171 25.796 38.2974 25.8667 38.4919 25.8667ZM38.4919 12.8859H55.6936C55.9156 12.8859 56.0961 12.8152 56.235 12.6737C56.3737 12.5041 56.4433 12.3202 56.4433 12.1223V6.35301C56.4433 6.12676 56.3737 5.94295 56.235 5.80154C56.0961 5.66013 55.9156 5.58943 55.6936 5.58943H38.4919C38.2974 5.58943 38.1171 5.66013 37.9505 5.80154C37.8116 5.94295 37.7422 6.12676 37.7422 6.35301V12.1223C37.7422 12.3202 37.8116 12.5041 37.9505 12.6737C38.1171 12.8152 38.2974 12.8859 38.4919 12.8859ZM67.3153 30.9996V0.414062H72.3134V25.8667H97.3037V30.9996H67.3153ZM105.271 30.9996C104.244 30.9996 103.3 30.7451 102.439 30.2361C101.578 29.727 100.898 29.0341 100.398 28.1574C99.8983 27.2808 99.6484 26.3191 99.6484 25.2728V6.18333C99.6484 5.13695 99.8983 4.17539 100.398 3.29869C100.898 2.422 101.578 1.72912 102.439 1.22006C103.3 0.711008 104.244 0.456482 105.271 0.456482H124.014C125.041 0.456482 125.972 0.711008 126.805 1.22006C127.665 1.72912 128.346 2.422 128.845 3.29869C129.373 4.17539 129.637 5.13695 129.637 6.18333V25.2728C129.637 26.3191 129.373 27.2808 128.845 28.1574C128.346 29.0341 127.665 29.727 126.805 30.2361C125.972 30.7451 125.041 30.9996 124.014 30.9996H105.271ZM105.396 25.8667H123.847C124.042 25.8667 124.208 25.796 124.347 25.6546C124.514 25.5131 124.597 25.3294 124.597 25.1031V6.35301C124.597 6.12676 124.514 5.94295 124.347 5.80154C124.208 5.66013 124.042 5.58943 123.847 5.58943H105.396C105.202 5.58943 105.021 5.66013 104.855 5.80154C104.716 5.94295 104.646 6.12676 104.646 6.35301V25.1031C104.646 25.3294 104.716 25.5131 104.855 25.6546C105.021 25.796 105.202 25.8667 105.396 25.8667ZM139.846 30.9996C138.819 30.9996 137.875 30.7451 137.014 30.2361C136.153 29.727 135.473 29.0341 134.973 28.1574C134.473 27.2808 134.223 26.3191 134.223 25.2728V6.18333C134.223 5.13695 134.473 4.17539 134.973 3.29869C135.473 2.422 136.153 1.72912 137.014 1.22006C137.875 0.711008 138.819 0.456482 139.846 0.456482H158.589C159.616 0.456482 160.547 0.711008 161.38 1.22006C162.24 1.72912 162.921 2.422 163.42 3.29869C163.947 4.17539 164.212 5.13695 164.212 6.18333V8.26196H159.172V6.35301C159.172 6.12676 159.089 5.94295 158.922 5.80154C158.783 5.66013 158.617 5.58943 158.422 5.58943H139.971C139.777 5.58943 139.596 5.66013 139.43 5.80154C139.291 5.94295 139.222 6.12676 139.222 6.35301V25.1031C139.222 25.3294 139.291 25.5131 139.43 25.6546C139.596 25.796 139.777 25.8667 139.971 25.8667H158.422C158.617 25.8667 158.783 25.796 158.922 25.6546C159.089 25.5131 159.172 25.3294 159.172 25.1031V19.1217H152.258V13.9888H164.212V25.2728C164.212 26.3191 163.947 27.2808 163.42 28.1574C162.921 29.0341 162.24 29.727 161.38 30.2361C160.547 30.7451 159.616 30.9996 158.589 30.9996H139.846Z" fill="#1E1E1E"/>
</g>
<defs>
<clipPath id="clip0_2211_3136">
<rect width="165" height="31" fill="white"/>
</clipPath>
</defs>
</svg>
