<svg width="103" height="19" viewBox="0 0 103 19" fill="none" xmlns="http://www.w3.org/2000/svg">
<path d="M0.508 19V0.279999H17.694V3.426H3.654V8.08H14.964V11.2H3.654V15.854H17.694V19H0.508Z" fill="#B66A25"/>
<path d="M20.4403 19V0.279999H34.8963C35.5376 0.279999 36.1183 0.435999 36.6383 0.747999C37.1756 1.06 37.6003 1.48467 37.9123 2.022C38.2416 2.55933 38.4063 3.14867 38.4063 3.79V7.508C38.4063 7.75067 38.3803 7.98467 38.3283 8.21C38.2936 8.418 38.2329 8.61733 38.1463 8.808C38.4583 9.24133 38.7009 9.67467 38.8743 10.108C39.0649 10.524 39.1603 10.9487 39.1603 11.382V15.49C39.1603 16.1313 38.9956 16.7207 38.6663 17.258C38.3543 17.7953 37.9296 18.22 37.3923 18.532C36.8723 18.844 36.2916 19 35.6503 19H20.4403ZM24.0283 15.854H35.5463C35.6676 15.854 35.7716 15.8107 35.8583 15.724C35.9623 15.6373 36.0143 15.5247 36.0143 15.386V11.512C36.0143 11.3733 35.9623 11.2607 35.8583 11.174C35.7716 11.0873 35.6676 11.044 35.5463 11.044H24.0283C23.9069 11.044 23.7943 11.0873 23.6903 11.174C23.6036 11.2607 23.5603 11.3733 23.5603 11.512V15.386C23.5603 15.5247 23.6036 15.6373 23.6903 15.724C23.7943 15.8107 23.9069 15.854 24.0283 15.854ZM24.0283 7.898H34.7663C34.9049 7.898 35.0176 7.85467 35.1043 7.768C35.1909 7.664 35.2343 7.55133 35.2343 7.43V3.894C35.2343 3.75533 35.1909 3.64267 35.1043 3.556C35.0176 3.46933 34.9049 3.426 34.7663 3.426H24.0283C23.9069 3.426 23.7943 3.46933 23.6903 3.556C23.6036 3.64267 23.5603 3.75533 23.5603 3.894V7.43C23.5603 7.55133 23.6036 7.664 23.6903 7.768C23.7943 7.85467 23.9069 7.898 24.0283 7.898ZM42.0211 19V0.254H45.1411V15.854H60.7411V19H42.0211ZM65.7148 19C65.0734 19 64.4841 18.844 63.9468 18.532C63.4094 18.22 62.9848 17.7953 62.6728 17.258C62.3608 16.7207 62.2048 16.1313 62.2048 15.49V3.79C62.2048 3.14867 62.3608 2.55933 62.6728 2.022C62.9848 1.48467 63.4094 1.06 63.9468 0.747999C64.4841 0.435999 65.0734 0.279999 65.7148 0.279999H77.4148C78.0561 0.279999 78.6368 0.435999 79.1568 0.747999C79.6941 1.06 80.1188 1.48467 80.4308 2.022C80.7601 2.55933 80.9248 3.14867 80.9248 3.79V15.49C80.9248 16.1313 80.7601 16.7207 80.4308 17.258C80.1188 17.7953 79.6941 18.22 79.1568 18.532C78.6368 18.844 78.0561 19 77.4148 19H65.7148ZM65.7928 15.854H77.3108C77.4321 15.854 77.5361 15.8107 77.6228 15.724C77.7268 15.6373 77.7788 15.5247 77.7788 15.386V3.894C77.7788 3.75533 77.7268 3.64267 77.6228 3.556C77.5361 3.46933 77.4321 3.426 77.3108 3.426H65.7928C65.6714 3.426 65.5588 3.46933 65.4548 3.556C65.3681 3.64267 65.3248 3.75533 65.3248 3.894V15.386C65.3248 15.5247 65.3681 15.6373 65.4548 15.724C65.5588 15.8107 65.6714 15.854 65.7928 15.854ZM87.298 19C86.6567 19 86.0674 18.844 85.53 18.532C84.9927 18.22 84.568 17.7953 84.256 17.258C83.944 16.7207 83.788 16.1313 83.788 15.49V3.79C83.788 3.14867 83.944 2.55933 84.256 2.022C84.568 1.48467 84.9927 1.06 85.53 0.747999C86.0674 0.435999 86.6567 0.279999 87.298 0.279999H98.998C99.6394 0.279999 100.22 0.435999 100.74 0.747999C101.277 1.06 101.702 1.48467 102.014 2.022C102.343 2.55933 102.508 3.14867 102.508 3.79V5.064H99.362V3.894C99.362 3.75533 99.31 3.64267 99.206 3.556C99.1194 3.46933 99.0154 3.426 98.894 3.426H87.376C87.2547 3.426 87.142 3.46933 87.038 3.556C86.9514 3.64267 86.908 3.75533 86.908 3.894V15.386C86.908 15.5247 86.9514 15.6373 87.038 15.724C87.142 15.8107 87.2547 15.854 87.376 15.854H98.894C99.0154 15.854 99.1194 15.8107 99.206 15.724C99.31 15.6373 99.362 15.5247 99.362 15.386V11.72H95.046V8.574H102.508V15.49C102.508 16.1313 102.343 16.7207 102.014 17.258C101.702 17.7953 101.277 18.22 100.74 18.532C100.22 18.844 99.6394 19 98.998 19H87.298Z" fill="#1E1E1E"/>
</svg>
