<svg width="142" height="26" viewBox="0 0 142 26" fill="none" xmlns="http://www.w3.org/2000/svg">
<path d="M0.0880001 26V0.079999H23.884V4.436H4.444V10.88H20.104V15.2H4.444V21.644H23.884V26H0.0880001Z" fill="#00C89A"/>
<path d="M27.6865 26V0.079999H47.7025C48.5905 0.079999 49.3945 0.295999 50.1145 0.727999C50.8585 1.16 51.4465 1.748 51.8785 2.492C52.3345 3.236 52.5625 4.052 52.5625 4.94V10.088C52.5625 10.424 52.5265 10.748 52.4545 11.06C52.4065 11.348 52.3225 11.624 52.2025 11.888C52.6345 12.488 52.9705 13.088 53.2105 13.688C53.4745 14.264 53.6065 14.852 53.6065 15.452V21.14C53.6065 22.028 53.3785 22.844 52.9225 23.588C52.4905 24.332 51.9025 24.92 51.1585 25.352C50.4385 25.784 49.6345 26 48.7465 26H27.6865ZM32.6545 21.644H48.6025C48.7705 21.644 48.9145 21.584 49.0345 21.464C49.1785 21.344 49.2505 21.188 49.2505 20.996V15.632C49.2505 15.44 49.1785 15.284 49.0345 15.164C48.9145 15.044 48.7705 14.984 48.6025 14.984H32.6545C32.4865 14.984 32.3305 15.044 32.1865 15.164C32.0665 15.284 32.0065 15.44 32.0065 15.632V20.996C32.0065 21.188 32.0665 21.344 32.1865 21.464C32.3305 21.584 32.4865 21.644 32.6545 21.644ZM32.6545 10.628H47.5225C47.7145 10.628 47.8705 10.568 47.9905 10.448C48.1105 10.304 48.1705 10.148 48.1705 9.98V5.084C48.1705 4.892 48.1105 4.736 47.9905 4.616C47.8705 4.496 47.7145 4.436 47.5225 4.436H32.6545C32.4865 4.436 32.3305 4.496 32.1865 4.616C32.0665 4.736 32.0065 4.892 32.0065 5.084V9.98C32.0065 10.148 32.0665 10.304 32.1865 10.448C32.3305 10.568 32.4865 10.628 32.6545 10.628ZM57.5676 26V0.0439994H61.8876V21.644H83.4876V26H57.5676ZM90.3743 26C89.4863 26 88.6703 25.784 87.9263 25.352C87.1823 24.92 86.5943 24.332 86.1623 23.588C85.7303 22.844 85.5143 22.028 85.5143 21.14V4.94C85.5143 4.052 85.7303 3.236 86.1623 2.492C86.5943 1.748 87.1823 1.16 87.9263 0.727999C88.6703 0.295999 89.4863 0.079999 90.3743 0.079999H106.574C107.462 0.079999 108.266 0.295999 108.986 0.727999C109.73 1.16 110.318 1.748 110.75 2.492C111.206 3.236 111.434 4.052 111.434 4.94V21.14C111.434 22.028 111.206 22.844 110.75 23.588C110.318 24.332 109.73 24.92 108.986 25.352C108.266 25.784 107.462 26 106.574 26H90.3743ZM90.4823 21.644H106.43C106.598 21.644 106.742 21.584 106.862 21.464C107.006 21.344 107.078 21.188 107.078 20.996V5.084C107.078 4.892 107.006 4.736 106.862 4.616C106.742 4.496 106.598 4.436 106.43 4.436H90.4823C90.3143 4.436 90.1583 4.496 90.0143 4.616C89.8943 4.736 89.8343 4.892 89.8343 5.084V20.996C89.8343 21.188 89.8943 21.344 90.0143 21.464C90.1583 21.584 90.3143 21.644 90.4823 21.644ZM120.259 26C119.371 26 118.555 25.784 117.811 25.352C117.067 24.92 116.479 24.332 116.047 23.588C115.615 22.844 115.399 22.028 115.399 21.14V4.94C115.399 4.052 115.615 3.236 116.047 2.492C116.479 1.748 117.067 1.16 117.811 0.727999C118.555 0.295999 119.371 0.079999 120.259 0.079999H136.459C137.347 0.079999 138.151 0.295999 138.871 0.727999C139.615 1.16 140.203 1.748 140.635 2.492C141.091 3.236 141.319 4.052 141.319 4.94V6.704H136.963V5.084C136.963 4.892 136.891 4.736 136.747 4.616C136.627 4.496 136.483 4.436 136.315 4.436H120.367C120.199 4.436 120.043 4.496 119.899 4.616C119.779 4.736 119.719 4.892 119.719 5.084V20.996C119.719 21.188 119.779 21.344 119.899 21.464C120.043 21.584 120.199 21.644 120.367 21.644H136.315C136.483 21.644 136.627 21.584 136.747 21.464C136.891 21.344 136.963 21.188 136.963 20.996V15.92H130.987V11.564H141.319V21.14C141.319 22.028 141.091 22.844 140.635 23.588C140.203 24.332 139.615 24.92 138.871 25.352C138.151 25.784 137.347 26 136.459 26H120.259Z" fill="white"/>
</svg>
